# AST/ASF file generated using VICON BodyLanguage
# -----------------------------------------------
:version 1.10
:name VICON
:units
  mass 1.0
  length 0.45
  angle deg
:documentation
   .ast/.asf automatically generated from VICON data using
   VICON BodyBuilder and BodyLanguage model FoxedUp or BRILLIANT.MOD
:root
   order TX TY TZ RX RY RZ
   axis XYZ
   position 0 0 0  
   orientation 0 0 0 
:bonedata
  begin
     id 1 
     name lhipjoint
     direction 0.625129 -0.738222 0.253461 
     length 2.5165 
     axis 0 0 0  XYZ
  end
  begin
     id 2 
     name lfemur
     direction 0.34202 -0.939693 0  
     length 7.54288  
     axis 0 0 20  XYZ
    dof rx ry rz
    limits (-160.0 20.0)
           (-70.0 70.0)
           (-60.0 70.0)
  end
  begin
     id 3 
     name ltibia
     direction 0.34202 -0.939693 0   
     length 7.71864   
     axis 0 0 20   XYZ
    dof rx
    limits (-10.0 170.0)
  end
  begin
     id 4 
     name lfoot
     direction 0.0772037 -0.212115 0.97419   
     length 2.18429   
     axis -90 7.62852e-016 20   XYZ
    dof rx rz
    limits (-45.0 90.0)
           (-70.0 20.0)
  end
  begin
     id 5 
     name ltoes
     direction 1.53513e-011 -4.21834e-011 1   
     length 1.09718   
     axis -90 7.62852e-016 20   XYZ
    dof rx
    limits (-90.0 20.0)
  end
  begin
     id 6 
     name rhipjoint
     direction -0.621946 -0.740623 0.254285   
     length 2.50835  
     axis 0 0 0  XYZ 
  end
  begin
     id 7 
     name rfemur
     direction -0.34202 -0.939693 0   
     length 7.43366   
     axis 0 0 -20   XYZ
    dof rx ry rz
    limits (-160.0 20.0)
           (-70.0 70.0)
           (-70.0 60.0)
  end
  begin
     id 8 
     name rtibia
     direction -0.34202 -0.939693 0   
     length 7.77122   
     axis 0 0 -20   XYZ
    dof rx
    limits (-10.0 170.0)
 end
 begin
     id 9 
     name rfoot
     direction -0.082694 -0.2272 0.970331   
     length 2.2293  
     axis -90 -7.62852e-016 -20   XYZ
    dof rx rz
    limits (-45.0 90.0)
           (-20.0 70.0)
  end
  begin
     id 10 
     name rtoes
     direction -1.53565e-011 -4.21695e-011 1   
     length 1.1178   
     axis -90 -7.62852e-016 -20   XYZ
    dof rx
    limits (-90.0 20.0)
  end
  begin
     id 11 
     name lowerback
     direction -0.000695208 0.988391 -0.151929   
     length 1.95077   
     axis 0 0 0   XYZ
    dof rx ry rz
    limits (-20.0 45.0)
           (-30.0 30.0)
           (-30.0 30.0)
  end
  begin
     id 12 
     name upperback
     direction -0.00268925 0.999885 -0.0149203   
     length 1.96246   
     axis 0 0 0   XYZ
    dof rx ry rz
    limits (-20.0 45.0)
           (-30.0 30.0)
           (-30.0 30.0)
  end
  begin
     id 13 
     name thorax
     direction -0.000848408 0.998481 0.0550912   
     length 2.00867   
     axis 0 0 0   XYZ
    dof rx ry rz
    limits (-20.0 45.0)
           (-30.0 30.0)
           (-30.0 30.0)
  end
  begin
     id 14 
     name lowerneck
     direction -0.00577709 0.998999 0.0443608   
     length 1.75762   
     axis 0 0 0   XYZ
    dof rx ry rz
    limits (-20.0 45.0)
           (-30.0 30.0)
           (-30.0 30.0)
  end
  begin
     id 15 
     name upperneck
     direction 0.0320945 0.999136 0.0264105   
     length 1.72601   
     axis 0 0 0   XYZ
    dof rx ry rz
    limits (-20.0 45.0)
           (-30.0 30.0)
           (-30.0 30.0)
  end
  begin
     id 16
     name head
     direction 0.0120552 0.999916 0.00480151  
     length 1.79973  
     axis 0 0 0   XYZ
    dof rx ry rz
    limits (-20.0 45.0)
           (-30.0 30.0)
           (-30.0 30.0)
  end
  begin
     id 17 
     name lclavicle
     direction 0.909 0.371533 -0.188897  
     length 3.47956  
     axis 0 0 0   XYZ
    dof ry rz
    limits (-20.0 10.0)
           (0.0 20.0)
  end
  begin
     id 18 
     name lhumerus
     direction 1 -4.48963e-011 -6.48352e-028   
     length 5.52302   
     axis 180 -30 -90   XYZ
    dof rx ry rz
    limits (-60.0 90.0)
           (-90.0 90.0)
           (-90.0 90.0)
  end
  begin
     id 19
     name lradius
     direction 1 -4.48968e-011 -4.78536e-027   
     length 3.58675   
     axis 180 -30 -90   XYZ
    dof rx
    limits (-10.0 170.0)
  end
  begin
     id 20
     name lwrist
     direction 1 -4.48942e-011 -9.9435e-027   
     length 1.79337   
     axis 8.54312e-015 90 90   XYZ
    dof ry
    limits (-180.0 0.0)
 end
  begin
     id 21 
     name lhand
     direction 1 -4.4904e-011 -1.9887e-026   
     length 0.536412   
     axis 1.26896e-014 90 90   XYZ
    dof rx rz
    limits (-90.0 90.0)
           (-45.0 45.0)
  end
  begin
     id 22 
     name lfingers
     direction 1 -4.48893e-011 -3.9774e-026   
     length 0.432469   
     axis 2.53792e-014 90 90   XYZ
    dof rx
    limits (0.0 90.0)
  end
  begin
     id 23
     name lthumb
     direction 0.707107 -6.34934e-011 0.707107   
     length 0.620942   
     axis -90 45 2.85299e-015   XYZ
    dof rx rz
    limits (-45.0 45.0)
           (-45.0 45.0)
  end
  begin
     id 24 
     name rclavicle
     direction -0.89595 0.416672 -0.153813   
     length 3.44099  
     axis 0 0 0   XYZ 
    dof ry rz
    limits (-10.0 20.0)
           (-20.0 0.0)
  end
  begin
     id 25 
     name rhumerus
     direction -1 -4.48952e-011 5.57804e-028  
     length 5.8478   
     axis 180 30 90   XYZ
    dof rx ry rz
    limits (-90.0 60.0)
           (-90.0 90.0)
           (-90.0 90.0)
  end
  begin
     id 26 
     name rradius
     direction -1 -4.48967e-011 -7.93646e-027   
     length 3.62717   
     axis 180 30 90   XYZ
    dof rx
    limits (-10.0 170.0)
  end
  begin
     id 27 
     name rwrist
     direction -1 -4.49008e-011 -9.9435e-027   
     length 1.81359   
     axis 8.54312e-015 -90 -90   XYZ
    dof ry
    limits (-180.0 0.0)
  end
  begin
     id 28
     name rhand
     direction -1 -4.48812e-011 -1.9887e-026   
     length 0.650516   
     axis 1.26896e-014 -90 -90   XYZ
    dof rx rz
    limits (-90.0 90.0)
           (-45.0 45.0)
  end
  begin
     id 29
     name rfingers
     direction -1 -4.49228e-011 -3.9774e-026   
     length 0.524463   
     axis 2.53792e-014 -90 -90   XYZ
    dof rx
    limits (0.0 90.0)
  end
  begin
     id 30
     name rthumb
     direction -0.707107 -6.34912e-011 0.707107   
     length 0.753027   
     axis -90 -45 -2.85299e-015   XYZ
    dof rx rz
    limits (-45.0 45.0)
           (-45.0 45.0)
  end
:hierarchy
  begin
    root lhipjoint rhipjoint lowerback
    lhipjoint lfemur
    lfemur ltibia
    ltibia lfoot
    lfoot ltoes
    rhipjoint rfemur
    rfemur rtibia
    rtibia rfoot
    rfoot rtoes
    lowerback upperback
    upperback thorax
    thorax lowerneck lclavicle rclavicle
    lowerneck upperneck
    upperneck head
    lclavicle lhumerus
    lhumerus lradius
    lradius lwrist
    lwrist lhand lthumb
    lhand lfingers
    rclavicle rhumerus
    rhumerus rradius
    rradius rwrist
    rwrist rhand rthumb
    rhand rfingers
  end

#!OML:ASF F:\VICON\USERDATA\INSTALL\rory3\rory3.ASF
:FULLY-SPECIFIED
:DEGREES
1
root 9.99354 18.0169 -23.4822 2.25986 -28.0158 4.83975
lowerback 12.1188 -1.4835 -5.28875
upperback 1.78299 -2.72716 -0.970859
thorax -4.71984 -1.27137 2.39248
lowerneck -4.09841 1.73729 0.533307
upperneck 5.05776 2.24361 0.689129
head 2.28982 1.14499 0.199093
rclavicle -2.9768e-014 -2.5842e-015
rhumerus -33.3712 -2.52957 -81.3904
rradius 28.4921
rwrist 14.0946
rhand -21.5656 13.8902
rfingers 7.12502
rthumb 4.82821 -16.0348
lclavicle -2.9768e-014 -2.5842e-015
lhumerus -6.71584 -8.69904 78.4369
lradius 26.4599
lwrist 9.06816
lhand -35.6914 17.699
lfingers 7.12502
lthumb -8.81201 47.4951
rfemur -29.9044 9.95888 12.6277
rtibia 38.1946
rfoot -9.68763 -19.0684
rtoes -1.60489
lfemur 2.73333 -5.1297 -28.0297
ltibia 16.3621
lfoot -10.693 5.8635
ltoes -24.3143
2
root 9.91432 18.0239 -23.3385 2.50587 -27.9499 4.55924
lowerback 12.03 -1.4356 -4.75937
upperback 1.76626 -2.59755 -1.10852
thorax -4.72868 -1.21691 1.92927
lowerneck -4.32631 1.863 1.42812
upperneck 4.76009 2.36049 0.560524
head 2.24689 1.21566 0.0103397
rclavicle -5.29761e-014 -1.43125e-014
rhumerus -33.6173 -3.84361 -81.2087
rradius 28.1212
rwrist 15.2226
rhand -20.4284 15.6079
rfingers 7.12502
rthumb 5.92625 -14.2892
lclavicle -5.29761e-014 -1.43125e-014
lhumerus -6.28895 -10.5663 77.9822
lradius 27.1775
lwrist 10.1293
lhand -35.9224 17.3026
lfingers 7.12502
lthumb -9.03497 47.0891
rfemur -29.9435 10.5204 12.6316
rtibia 35.5052
rfoot -9.31868 -19.601
rtoes -1.06644
lfemur 3.49064 -5.19352 -27.7431
ltibia 15.7166
lfoot -10.4436 5.5258
ltoes -23.9056
3
root 9.83413 18.0357 -23.1903 2.72195 -28.2018 4.49321
lowerback 11.6383 -1.46349 -4.57303
upperback 1.79434 -2.58565 -1.09669
thorax -4.49071 -1.22059 1.82068
lowerneck -4.47364 2.09133 1.63202
upperneck 4.56412 2.65722 0.447623
head 2.21548 1.36314 -0.0498477
rclavicle 1.10325e-014 7.7526e-015
rhumerus -33.7157 -4.01888 -81.1506
rradius 27.9336
rwrist 15.5434
rhand -19.7494 15.4182
rfingers 7.12502
rthumb 6.58173 -14.4595
lclavicle 1.10325e-014 7.7526e-015
lhumerus -6.06098 -11.3066 77.6959
lradius 27.8966
lwrist 10.5757
lhand -36.4642 16.305
lfingers 7.12502
lthumb -9.55773 46.0682
rfemur -30.1553 11.3078 12.356
rtibia 32.9896
rfoot -8.65783 -19.3948
rtoes -0.546272
lfemur 4.1895 -4.93779 -27.7862
ltibia 15.1419
lfoot -10.2291 5.33663
ltoes -24.2391
4
root 9.7525 18.0363 -23.0541 2.87756 -28.8325 4.55274
lowerback 11.1916 -1.49101 -4.71237
upperback 1.84724 -2.60445 -0.969292
thorax -4.17411 -1.2361 2.01675
lowerneck -4.43019 2.30535 1.11618
upperneck 4.50162 2.97352 0.543836
head 2.17816 1.51404 0.0773872
rclavicle 4.1546e-014 -2.44505e-014
rhumerus -33.4935 -3.66955 -81.0956
rradius 27.4824
rwrist 15.7807
rhand -19.5222 15.4893
rfingers 7.12502
rthumb 6.80108 -14.3815
lclavicle 4.1546e-014 -2.44505e-014
lhumerus -5.88497 -11.0921 77.416
lradius 28.6787
lwrist 10.7551
lhand -36.6382 16.2707
lfingers 7.12502
lthumb -9.72559 46.0261
rfemur -30.4594 12.4002 11.8999
rtibia 30.4121
rfoot -7.53635 -18.3885
rtoes 0.458652
lfemur 4.91076 -4.31642 -27.9191
ltibia 14.4566
lfoot -9.80408 5.35393
ltoes -25.5999
5
root 9.66716 18.0361 -22.9392 3.08796 -29.0128 4.65074
lowerback 11.0884 -1.71579 -5.15134
upperback 1.70425 -2.93306 -0.591167
thorax -4.20193 -1.38618 2.70124
lowerneck -3.89194 2.68196 0.128886
upperneck 3.85983 3.53812 0.712431
head 1.85015 1.78197 0.298493
rclavicle -2.94698e-014 1.19271e-015
rhumerus -33.3601 -2.68481 -80.9231
rradius 27.073
rwrist 15.844
rhand -19.4353 15.9821
rfingers 7.12502
rthumb 6.88495 -13.8859
lclavicle -2.94698e-014 1.19271e-015
lhumerus -5.99104 -10.5789 77.39
lradius 29.4224
lwrist 11.2388
lhand -36.6548 16.2438
lfingers 7.12502
lthumb -9.74162 45.9985
rfemur -30.8558 13.525 11.326
rtibia 27.9623
rfoot -6.34917 -18.0515
rtoes 0.524487
lfemur 5.5341 -4.17908 -27.9092
ltibia 13.6647
lfoot -9.18031 5.33161
ltoes -27.0849
6
root 9.5821 18.0347 -22.7829 3.12741 -29.4054 4.78726
lowerback 10.8608 -1.73526 -5.3614
upperback 1.65888 -2.96146 -0.406242
thorax -4.10004 -1.39834 3.00683
lowerneck -4.10611 2.45376 -0.570084
upperneck 4.88794 3.27296 0.669571
head 2.21528 1.63607 0.411246
rclavicle -4.91557e-014 -2.60159e-014
rhumerus -33.4441 -2.38142 -80.6879
rradius 26.8355
rwrist 16.1792
rhand -19.0607 16.5416
rfingers 7.12502
rthumb 7.24656 -13.3144
lclavicle -4.91557e-014 -2.60159e-014
lhumerus -6.25816 -10.4207 77.5214
lradius 30.2866
lwrist 11.451
lhand -36.8993 15.7325
lfingers 7.12502
lthumb -9.97744 45.4761
rfemur -31.0368 14.8197 10.6422
rtibia 25.6399
rfoot -5.63242 -17.9535
rtoes 0.255686
lfemur 6.39874 -3.77976 -28.1469
ltibia 12.9773
lfoot -8.80263 5.30308
ltoes -27.8988
7
root 9.49781 18.0352 -22.6264 3.16308 -29.717 4.77503
lowerback 10.7837 -1.68269 -5.3286
upperback 1.66116 -2.88005 -0.341916
thorax -4.06029 -1.35957 3.04144
lowerneck -4.41093 2.86107 0.0255858
upperneck 4.342 3.80328 0.262984
head 2.10741 1.9012 0.198001
rclavicle -3.2721e-014 9.405e-015
rhumerus -33.6229 -2.5306 -80.545
rradius 26.7245
rwrist 16.5264
rhand -18.5091 16.7022
rfingers 7.12502
rthumb 7.77901 -13.1347
lclavicle -3.2721e-014 9.405e-015
lhumerus -6.52483 -10.2637 77.6464
lradius 31.1789
lwrist 11.2425
lhand -37.0698 15.4105
lfingers 7.12502
lthumb -10.1419 45.1461
rfemur -31.1218 16.2241 10.0074
rtibia 23.5615
rfoot -5.68025 -17.8435
rtoes 1.02785
lfemur 7.39043 -3.44536 -28.2304
ltibia 12.184
lfoot -8.31346 5.27408
ltoes -29.3063
8
root 9.41024 18.0302 -22.4776 3.167 -29.8636 4.6342
lowerback 10.7274 -1.67672 -5.05768
upperback 1.71716 -2.83478 -0.317432
thorax -3.98645 -1.34419 2.90536
lowerneck -4.40567 1.86225 -0.811786
upperneck 6.72208 2.52661 0.198358
head 2.89284 1.23649 0.300948
rclavicle -1.81764e-014 -4.05024e-015
rhumerus -33.8596 -2.38034 -80.6307
rradius 26.7329
rwrist 16.4003
rhand -18.3949 16.4713
rfingers 7.12502
rthumb 7.88921 -13.3615
lclavicle -1.81764e-014 -4.05024e-015
lhumerus -6.53588 -10.5748 77.54
lradius 31.9438
lwrist 11.6258
lhand -36.8009 15.8726
lfingers 7.12502
lthumb -9.88256 45.6207
rfemur -31.0567 16.1935 10.0574
rtibia 21.9161
rfoot -6.12644 -16.4576
rtoes 1.46255
lfemur 8.64503 -3.2682 -28.1071
ltibia 10.9951
lfoot -7.54036 5.15202
ltoes -31.7767
9
root 9.31929 18.0185 -22.3295 2.9358 -29.9545 4.87345
lowerback 10.5447 -1.73364 -5.04914
upperback 1.82758 -2.89999 -0.41748
thorax -3.76979 -1.38574 2.79379
lowerneck -3.87407 2.02561 -1.15409
upperneck 5.84914 2.72874 0.711877
head 2.48695 1.35012 0.514489
rclavicle 5.64611e-014 3.13086e-015
rhumerus -33.9391 -2.3953 -80.6953
rradius 26.4715
rwrist 16.4639
rhand -18.5621 16.3235
rfingers 7.12502
rthumb 7.72783 -13.5153
lclavicle 5.64611e-014 3.13086e-015
lhumerus -6.46076 -10.8048 77.2863
lradius 32.5368
lwrist 12.3342
lhand -36.5528 16.0029
lfingers 7.12502
lthumb -9.64315 45.7622
rfemur -31.0548 16.0989 9.84235
rtibia 20.5974
rfoot -6.57918 -15.3561
rtoes 0.888352
lfemur 9.9664 -3.16148 -28.2914
ltibia 9.73453
lfoot -6.71102 4.93072
ltoes -34.2712
10
root 9.2255 18.0042 -22.1649 2.56069 -30.0675 5.335
lowerback 10.3944 -1.81481 -5.33497
upperback 1.92861 -3.03014 -0.484251
thorax -3.55867 -1.45579 2.89095
lowerneck -3.83319 2.18542 -1.28437
upperneck 5.56053 2.94645 0.7855
head 2.37825 1.4593 0.562962
rclavicle 3.58993e-014 -2.08724e-015
rhumerus -34.0394 -2.07684 -80.7275
rradius 26.2826
rwrist 16.3704
rhand -18.5598 15.9023
rfingers 7.12502
rthumb 7.73002 -13.9364
lclavicle 3.58993e-014 -2.08724e-015
lhumerus -6.78156 -10.598 77.2807
lradius 33.2046
lwrist 12.873
lhand -36.5786 16.0523
lfingers 7.12502
lthumb -9.66813 45.8105
rfemur -30.9955 16.0093 9.47547
rtibia 19.5563
rfoot -7.3016 -14.3747
rtoes -0.857535
lfemur 11.3896 -3.02295 -28.7264
ltibia 8.42803
lfoot -5.91874 4.69734
ltoes -35.1679
